<svg width="350" height="350" viewBox="0 0 350 350" fill="none" xmlns="http://www.w3.org/2000/svg">
<path d="M280.215 109.932C280.215 139.479 282.215 148.432 210.215 162.432C138.215 176.432 120.715 131.979 120.715 102.432C120.715 72.8849 145.715 41.432 208.215 55.4321C270.715 69.4321 280.215 80.3849 280.215 109.932Z" fill="#B82F6D" fill-opacity="0.7"/>
<path d="M148.215 85.4321C148.215 104.762 108.597 143.932 88.7148 143.932C68.8326 143.932 47.2148 137.762 47.2148 118.432C47.2148 99.1022 84.8326 56.4321 104.715 56.4321C124.597 56.4321 148.215 66.1022 148.215 85.4321Z" fill="#5E33B6" fill-opacity="0.7"/>
<path d="M62.2149 117.432C64.2149 129.932 92.7149 162.932 51.2149 181.432C29.6935 191.026 7.52096 157.524 14.2149 134.932C26.2148 94.4321 38.3653 67.0602 60.7149 80.9322C75.2149 89.9321 59.9609 103.345 62.2149 117.432Z" fill="#DE4027" fill-opacity="0.7"/>
<path d="M156.715 175.932C140.656 210.932 108.215 192.573 97.7149 191.432C87.2149 190.291 42.2149 197.432 50.7149 169.932C59.2149 142.432 99.7149 108.432 126.215 108.432C152.715 108.432 172.774 140.932 156.715 175.932Z" fill="#4BA8CA" fill-opacity="0.7"/>
<path d="M252.215 153.432C262.715 203.932 227.215 204.339 187.215 216.432C147.215 228.525 154.215 238.932 117.715 219.432C81.2149 199.932 109.215 163.432 134.215 158.432C159.215 153.432 203.715 145.932 203.715 145.932C203.715 145.932 249.137 138.626 252.215 153.432Z" fill="#62AF15" fill-opacity="0.7"/>
<path d="M320.715 150.932C326.162 163.135 330.876 194.333 314.715 201.432C293.793 210.622 273.663 198.5 249.215 189.932C230.074 183.224 191.215 216.432 202.715 164.932C214.215 113.432 224.96 121.608 259.715 110.432C294.469 99.2561 308.215 122.932 320.715 150.932Z" fill="#FFC100" fill-opacity="0.7"/>
<path d="M334.715 193.432C339.715 211.932 335.715 254.432 280.215 228.432C224.715 202.432 215.215 209.954 215.215 190.932C215.215 171.91 221.715 169.432 273.715 155.432C325.715 141.432 329.715 174.932 334.715 193.432Z" fill="#CE602C" fill-opacity="0.7"/>
<path d="M291.715 234.932C291.715 255.591 287.374 262.432 266.715 262.432C257.595 262.432 200.215 246.432 219.715 287.932C221.215 291.124 215.248 295.386 212.715 292.932C207.299 291.613 157.715 228.506 157.715 222.932C157.715 211.432 158.215 184.432 217.215 200.432C276.215 216.432 291.715 214.273 291.715 234.932Z" fill="#309096" fill-opacity="0.7"/>
</svg>
